<?xml version="1.0" encoding="UTF-8"?>
<svg xmlns="http://www.w3.org/2000/svg" xmlns:xlink="http://www.w3.org/1999/xlink" width="23px" height="23px" viewBox="0 0 23 23" version="1.1">
<g id="surface1">
<path style=" stroke:none;fill-rule:nonzero;fill:rgb(14.117647%,14.117647%,14.117647%);fill-opacity:1;" d="M 11.5 23 C 17.851562 23 23 17.851562 23 11.5 C 23 5.148438 17.851562 0 11.5 0 C 5.148438 0 0 5.148438 0 11.5 C 0 17.851562 5.148438 23 11.5 23 Z M 11.5 23 "/>
<path style=" stroke:none;fill-rule:nonzero;fill:rgb(100%,100%,100%);fill-opacity:1;" d="M 15.117188 5.449219 L 17.0625 5.449219 L 12.804688 10.574219 L 17.816406 17.550781 L 13.894531 17.550781 L 10.820312 13.320312 L 7.304688 17.550781 L 5.355469 17.550781 L 9.910156 12.066406 L 5.105469 5.449219 L 9.125 5.449219 L 11.902344 9.316406 Z M 14.429688 16.324219 L 15.511719 16.324219 L 8.539062 6.613281 L 7.382812 6.613281 Z M 14.429688 16.324219 "/>
</g>
</svg>
